<svg xmlns="http://www.w3.org/2000/svg" viewBox="0 0 272.2 332.09"><defs><style>.cls-1{fill:#fed306;fill-rule:evenodd;}</style></defs><g id="Capa_2" data-name="Capa 2"><g id="Capa_1-2" data-name="Capa 1"><path class="cls-1" d="M132.54,181.87c23.6-5.36,31.65,31.66,7.51,37.56-24.14,5.36-33.8-31.66-7.51-37.56ZM130.39,79.94c27.9-4.83,27.36,20.92,25.22,41.84-1.61,15-7,45.61-15.56,52.58-16.63,12.88-26.29-53.65-23.61-75.11,1.07-10.19,3.22-17.17,13.95-19.31ZM98.2,255.37c9.66,0,70.82,1.08,75.11,0,3.76-12.87,5.9-23.07,11.27-35.41a27,27,0,0,0,1.61-3.75l23.07-34.34a.52.52,0,0,0,.53-.53v-.54c20.39-36.48,15.56-76.72-12.87-106.23-5.37-5.9-16.64-13.95-25.76-17.7-29-12.34-58.47-9.66-84.23,7.51C81,68.67,75.67,74,70.3,79.4a67.88,67.88,0,0,0-4.83,6.44c-17.7,25.21-20.92,54.72-9.65,83.69,9.12,21.46,25.75,30.58,37.55,69.21,1.08,4.29,3.22,13.95,4.83,16.63Z"/><path class="cls-1" d="M90.69,289.17c-6.44,0-15.56-1.07-15.56,6.44,0,8.05,10.19,7,15,6.44,3.22,7.51,2.15,10.73,9.12,18.24L102,323c1.07,1.07,1.61,1.07,2.68,2.15,3.22,2.14,7.51,4.83,12.34,5.9s11.8,1.07,17.7,1.07c13.95,0,20.93,0,30.58-7,8.05-5.37,11.81-12.34,14-22.54,8,0,16.1,1.08,16.1-6.43.53-8-8.59-7-15-7l-.53-19.85H91.23Z"/><path class="cls-1" d="M224.28,38.09c-3.22,1.61-12.34,11.27-15,14.49-2.69,2.68-6.44,4.29-5.37,9.65a7,7,0,0,0,9.12,4.3c3.22-1.08,11.8-10.73,15-14,2.15-1.61,5.9-4.3,5.37-9.66-.54-3.76-4.83-6.44-9.12-4.83Z"/><path class="cls-1" d="M40.8,39.7c-10.2,6.44,3.21,15,12.87,24.68,1.61,2.15,4.83,5.36,9.66,3.22.53,0,1.07-.54,1.61-1.07,2.14-2.15,2.14-5.91.53-8.59L51,42.92c-1.61-1.61-5.37-6.44-10.19-3.22Z"/><path class="cls-1" d="M252.18,80.47a153.82,153.82,0,0,0-19.85,8c-9.66,3.76-4.83,16.1,4.82,12.34,7.51-2.68,12.34-5.36,19.85-8.58,2.69-1.08,5.91-3.22,4.3-8-1.08-3.76-4.3-5.9-9.12-3.76Z"/><path class="cls-1" d="M230.72,171.68c-4.83,2.15-4.3,6.44-2.69,9.12,2.15,3.76,25.76,13.41,30,11.8,3.75-1.61,3.75-7,2.68-9.12-1.61-2.68-4.83-3.75-9.12-5.36-4.29-2.15-16.1-8.59-20.92-6.44Z"/><path class="cls-1" d="M182.43,10.73c-2.15.54-2.68.54-3.75,2.68a16,16,0,0,0-2.15,5.37C174.92,23.07,168.48,36,169,39.7A7.79,7.79,0,0,0,178.68,44c3.21-1.61,4.29-4.83,5.36-8,1.07-3.76,3.22-7.52,4.29-10.2s3.76-8,2.68-11.26c-.53-3.22-4.29-5.91-8.58-3.76Z"/><path class="cls-1" d="M136.83,0h-2.68c-3.22,1.61-4.83,2.15-5.37,5.9a94.37,94.37,0,0,0-.54,12.34V30c.54,9.12,11.27,7.51,12.88,2.15,1.07-2.68,1.07-20.92.54-24.14,0-5.9-1.61-5.37-4.83-8Z"/><path class="cls-1" d="M15.58,142.17c9.66,0,20.92,1.61,20.92-6.44,0-9.12-13.95-7-25.75-7-4.29,0-6.44-.54-9.12,2.15a6.58,6.58,0,0,0-1.07,7c2.14,5.36,8.58,4.29,15,4.29Z"/><path class="cls-1" d="M83.18,11.27c-3.76,1.61-4.83,4.29-3.76,9.12L88,40.24c1.61,3.75,4.29,6.44,9.12,4.29,7.51-3.76,1.61-14-1.08-19.31C93.91,20.39,91.23,7,83.18,11.27Z"/><path class="cls-1" d="M249,142.17c8.58,0,19.85,1.61,22.53-4.29,4.83-11.27-16.1-9.12-23.61-9.12-4.82,0-14.48-.54-11.8,8.58,1.07,5.37,7,4.83,12.88,4.83Z"/><path class="cls-1" d="M13.43,81.55c-3.75,2.14-5.9,5.36-3.21,9.65,2.14,2.69,26.28,13.42,30.58,11.27,2.68-2.14,4.29-5.9,2.14-9.66C41.33,89.6,17.19,79.4,13.43,81.55Z"/><path class="cls-1" d="M34.36,170.61c-6.44,2.14-13.95,4.82-19.85,8C4.85,183,10.22,194.21,19.34,191c1.61-.53,2.68-1.07,4.29-1.61l15-6.43c10.19-4.83,4.83-16.1-4.29-12.34Z"/></g></g></svg>